<?xml version="1.0" encoding="UTF-8" standalone="no"?>
<!DOCTYPE svg PUBLIC "-//W3C//DTD SVG 1.1//EN"
 "http://www.w3.org/Graphics/SVG/1.1/DTD/svg11.dtd">
<!-- Generated by graphviz version 2.40.1 (20161225.0304)
 -->
<!-- Title: snakemake_dag Pages: 1 -->
<svg width="323pt" height="1268pt"
 viewBox="0.00 0.00 323.00 1268.00" xmlns="http://www.w3.org/2000/svg" xmlns:xlink="http://www.w3.org/1999/xlink">
<g id="graph0" class="graph" transform="scale(1 1) rotate(0) translate(4 1264)">
<title>snakemake_dag</title>
<polygon fill="#ffffff" stroke="transparent" points="-4,4 -4,-1264 319,-1264 319,4 -4,4"/>
<!-- 0 -->
<g id="node1" class="node">
<title>0</title>
<path fill="none" stroke="#d8cb56" stroke-width="2" d="M231,-36C231,-36 201,-36 201,-36 195,-36 189,-30 189,-24 189,-24 189,-12 189,-12 189,-6 195,0 201,0 201,0 231,0 231,0 237,0 243,-6 243,-12 243,-12 243,-24 243,-24 243,-30 237,-36 231,-36"/>
<text text-anchor="middle" x="216" y="-15.5" font-family="sans" font-size="10.00" fill="#000000">all</text>
</g>
<!-- 1 -->
<g id="node2" class="node">
<title>1</title>
<path fill="none" stroke="#56c9d8" stroke-width="2" d="M159,-108C159,-108 97,-108 97,-108 91,-108 85,-102 85,-96 85,-96 85,-84 85,-84 85,-78 91,-72 97,-72 97,-72 159,-72 159,-72 165,-72 171,-78 171,-84 171,-84 171,-96 171,-96 171,-102 165,-108 159,-108"/>
<text text-anchor="middle" x="128" y="-87.5" font-family="sans" font-size="10.00" fill="#000000">memmer_plot</text>
</g>
<!-- 1&#45;&gt;0 -->
<g id="edge1" class="edge">
<title>1&#45;&gt;0</title>
<path fill="none" stroke="#c0c0c0" stroke-width="2" d="M150.2061,-71.8314C161.045,-62.9632 174.2444,-52.1637 185.9678,-42.5718"/>
<polygon fill="#c0c0c0" stroke="#c0c0c0" stroke-width="2" points="188.2777,-45.2041 193.801,-36.1628 183.845,-39.7864 188.2777,-45.2041"/>
</g>
<!-- 2 -->
<g id="node3" class="node">
<title>2</title>
<path fill="none" stroke="#70d856" stroke-width="2" d="M231,-108C231,-108 201,-108 201,-108 195,-108 189,-102 189,-96 189,-96 189,-84 189,-84 189,-78 195,-72 201,-72 201,-72 231,-72 231,-72 237,-72 243,-78 243,-84 243,-84 243,-96 243,-96 243,-102 237,-108 231,-108"/>
<text text-anchor="middle" x="216" y="-87.5" font-family="sans" font-size="10.00" fill="#000000">QC_SR</text>
</g>
<!-- 2&#45;&gt;0 -->
<g id="edge2" class="edge">
<title>2&#45;&gt;0</title>
<path fill="none" stroke="#c0c0c0" stroke-width="2" d="M216,-71.8314C216,-64.131 216,-54.9743 216,-46.4166"/>
<polygon fill="#c0c0c0" stroke="#c0c0c0" stroke-width="2" points="219.5001,-46.4132 216,-36.4133 212.5001,-46.4133 219.5001,-46.4132"/>
</g>
<!-- 3 -->
<g id="node4" class="node">
<title>3</title>
<path fill="none" stroke="#d85656" stroke-width="2" d="M303,-108C303,-108 273,-108 273,-108 267,-108 261,-102 261,-96 261,-96 261,-84 261,-84 261,-78 267,-72 273,-72 273,-72 303,-72 303,-72 309,-72 315,-78 315,-84 315,-84 315,-96 315,-96 315,-102 309,-108 303,-108"/>
<text text-anchor="middle" x="288" y="-87.5" font-family="sans" font-size="10.00" fill="#000000">QC_LR</text>
</g>
<!-- 3&#45;&gt;0 -->
<g id="edge3" class="edge">
<title>3&#45;&gt;0</title>
<path fill="none" stroke="#c0c0c0" stroke-width="2" d="M269.8314,-71.8314C261.2848,-63.2848 250.9443,-52.9443 241.6198,-43.6198"/>
<polygon fill="#c0c0c0" stroke="#c0c0c0" stroke-width="2" points="243.9592,-41.0095 234.4133,-36.4133 239.0095,-45.9592 243.9592,-41.0095"/>
</g>
<!-- 4 -->
<g id="node5" class="node">
<title>4</title>
<path fill="none" stroke="#566bd8" stroke-width="2" d="M150.5,-180C150.5,-180 105.5,-180 105.5,-180 99.5,-180 93.5,-174 93.5,-168 93.5,-168 93.5,-156 93.5,-156 93.5,-150 99.5,-144 105.5,-144 105.5,-144 150.5,-144 150.5,-144 156.5,-144 162.5,-150 162.5,-156 162.5,-156 162.5,-168 162.5,-168 162.5,-174 156.5,-180 150.5,-180"/>
<text text-anchor="middle" x="128" y="-159.5" font-family="sans" font-size="10.00" fill="#000000">delta_filter</text>
</g>
<!-- 4&#45;&gt;1 -->
<g id="edge4" class="edge">
<title>4&#45;&gt;1</title>
<path fill="none" stroke="#c0c0c0" stroke-width="2" d="M128,-143.8314C128,-136.131 128,-126.9743 128,-118.4166"/>
<polygon fill="#c0c0c0" stroke="#c0c0c0" stroke-width="2" points="131.5001,-118.4132 128,-108.4133 124.5001,-118.4133 131.5001,-118.4132"/>
</g>
<!-- 5 -->
<g id="node6" class="node">
<title>5</title>
<path fill="none" stroke="#d8a456" stroke-width="2" d="M143,-252C143,-252 113,-252 113,-252 107,-252 101,-246 101,-240 101,-240 101,-228 101,-228 101,-222 107,-216 113,-216 113,-216 143,-216 143,-216 149,-216 155,-222 155,-228 155,-228 155,-240 155,-240 155,-246 149,-252 143,-252"/>
<text text-anchor="middle" x="128" y="-231.5" font-family="sans" font-size="10.00" fill="#000000">nucmer</text>
</g>
<!-- 5&#45;&gt;4 -->
<g id="edge5" class="edge">
<title>5&#45;&gt;4</title>
<path fill="none" stroke="#c0c0c0" stroke-width="2" d="M128,-215.8314C128,-208.131 128,-198.9743 128,-190.4166"/>
<polygon fill="#c0c0c0" stroke="#c0c0c0" stroke-width="2" points="131.5001,-190.4132 128,-180.4133 124.5001,-190.4133 131.5001,-190.4132"/>
</g>
<!-- 6 -->
<g id="node7" class="node">
<title>6</title>
<path fill="none" stroke="#d8b456" stroke-width="2" d="M150,-324C150,-324 106,-324 106,-324 100,-324 94,-318 94,-312 94,-312 94,-300 94,-300 94,-294 100,-288 106,-288 106,-288 150,-288 150,-288 156,-288 162,-294 162,-300 162,-300 162,-312 162,-312 162,-318 156,-324 150,-324"/>
<text text-anchor="middle" x="128" y="-303.5" font-family="sans" font-size="10.00" fill="#000000">sort_haplo</text>
</g>
<!-- 6&#45;&gt;5 -->
<g id="edge6" class="edge">
<title>6&#45;&gt;5</title>
<path fill="none" stroke="#c0c0c0" stroke-width="2" d="M128,-287.8314C128,-280.131 128,-270.9743 128,-262.4166"/>
<polygon fill="#c0c0c0" stroke="#c0c0c0" stroke-width="2" points="131.5001,-262.4132 128,-252.4133 124.5001,-262.4133 131.5001,-262.4132"/>
</g>
<!-- 7 -->
<g id="node8" class="node">
<title>7</title>
<path fill="none" stroke="#56d89a" stroke-width="2" d="M156,-396C156,-396 100,-396 100,-396 94,-396 88,-390 88,-384 88,-384 88,-372 88,-372 88,-366 94,-360 100,-360 100,-360 156,-360 156,-360 162,-360 168,-366 168,-372 168,-372 168,-384 168,-384 168,-390 162,-396 156,-396"/>
<text text-anchor="middle" x="128" y="-375.5" font-family="sans" font-size="10.00" fill="#000000">merge_haplo</text>
</g>
<!-- 7&#45;&gt;6 -->
<g id="edge7" class="edge">
<title>7&#45;&gt;6</title>
<path fill="none" stroke="#c0c0c0" stroke-width="2" d="M128,-359.8314C128,-352.131 128,-342.9743 128,-334.4166"/>
<polygon fill="#c0c0c0" stroke="#c0c0c0" stroke-width="2" points="131.5001,-334.4132 128,-324.4133 124.5001,-334.4133 131.5001,-334.4132"/>
</g>
<!-- 8 -->
<g id="node9" class="node">
<title>8</title>
<path fill="none" stroke="#56b9d8" stroke-width="2" d="M153,-468C153,-468 103,-468 103,-468 97,-468 91,-462 91,-456 91,-456 91,-444 91,-444 91,-438 97,-432 103,-432 103,-432 153,-432 153,-432 159,-432 165,-438 165,-444 165,-444 165,-456 165,-456 165,-462 159,-468 153,-468"/>
<text text-anchor="middle" x="128" y="-447.5" font-family="sans" font-size="10.00" fill="#000000">haplo_fasta</text>
</g>
<!-- 8&#45;&gt;7 -->
<g id="edge8" class="edge">
<title>8&#45;&gt;7</title>
<path fill="none" stroke="#c0c0c0" stroke-width="2" d="M128,-431.8314C128,-424.131 128,-414.9743 128,-406.4166"/>
<polygon fill="#c0c0c0" stroke="#c0c0c0" stroke-width="2" points="131.5001,-406.4132 128,-396.4133 124.5001,-406.4133 131.5001,-406.4132"/>
</g>
<!-- 9 -->
<g id="node10" class="node">
<title>9</title>
<path fill="none" stroke="#bed856" stroke-width="2" d="M143,-612C143,-612 113,-612 113,-612 107,-612 101,-606 101,-600 101,-600 101,-588 101,-588 101,-582 107,-576 113,-576 113,-576 143,-576 143,-576 149,-576 155,-582 155,-588 155,-588 155,-600 155,-600 155,-606 149,-612 143,-612"/>
<text text-anchor="middle" x="128" y="-591.5" font-family="sans" font-size="10.00" fill="#000000">bgzip</text>
</g>
<!-- 9&#45;&gt;8 -->
<g id="edge9" class="edge">
<title>9&#45;&gt;8</title>
<path fill="none" stroke="#c0c0c0" stroke-width="2" d="M124.585,-575.5804C122.8291,-565.1767 120.8774,-551.9092 120,-540 118.8244,-524.0432 118.8244,-519.9568 120,-504 120.6169,-495.6264 121.7649,-486.5812 123.0026,-478.3322"/>
<polygon fill="#c0c0c0" stroke="#c0c0c0" stroke-width="2" points="126.4648,-478.8463 124.585,-468.4196 119.5523,-477.7428 126.4648,-478.8463"/>
</g>
<!-- 10 -->
<g id="node11" class="node">
<title>10</title>
<path fill="none" stroke="#56d88a" stroke-width="2" d="M171,-540C171,-540 141,-540 141,-540 135,-540 129,-534 129,-528 129,-528 129,-516 129,-516 129,-510 135,-504 141,-504 141,-504 171,-504 171,-504 177,-504 183,-510 183,-516 183,-516 183,-528 183,-528 183,-534 177,-540 171,-540"/>
<text text-anchor="middle" x="156" y="-519.5" font-family="sans" font-size="10.00" fill="#000000">tabix</text>
</g>
<!-- 9&#45;&gt;10 -->
<g id="edge12" class="edge">
<title>9&#45;&gt;10</title>
<path fill="none" stroke="#c0c0c0" stroke-width="2" d="M135.0656,-575.8314C138.126,-567.9617 141.7779,-558.5712 145.1682,-549.8533"/>
<polygon fill="#c0c0c0" stroke="#c0c0c0" stroke-width="2" points="148.4768,-551.0019 148.8393,-540.4133 141.9527,-548.4647 148.4768,-551.0019"/>
</g>
<!-- 10&#45;&gt;8 -->
<g id="edge10" class="edge">
<title>10&#45;&gt;8</title>
<path fill="none" stroke="#c0c0c0" stroke-width="2" d="M148.9344,-503.8314C145.874,-495.9617 142.2221,-486.5712 138.8318,-477.8533"/>
<polygon fill="#c0c0c0" stroke="#c0c0c0" stroke-width="2" points="142.0473,-476.4647 135.1607,-468.4133 135.5232,-479.0019 142.0473,-476.4647"/>
</g>
<!-- 11 -->
<g id="node12" class="node">
<title>11</title>
<path fill="none" stroke="#5692d8" stroke-width="2" d="M153.5,-684C153.5,-684 102.5,-684 102.5,-684 96.5,-684 90.5,-678 90.5,-672 90.5,-672 90.5,-660 90.5,-660 90.5,-654 96.5,-648 102.5,-648 102.5,-648 153.5,-648 153.5,-648 159.5,-648 165.5,-654 165.5,-660 165.5,-660 165.5,-672 165.5,-672 165.5,-678 159.5,-684 153.5,-684"/>
<text text-anchor="middle" x="128" y="-663.5" font-family="sans" font-size="10.00" fill="#000000">what_phase</text>
</g>
<!-- 11&#45;&gt;9 -->
<g id="edge11" class="edge">
<title>11&#45;&gt;9</title>
<path fill="none" stroke="#c0c0c0" stroke-width="2" d="M128,-647.8314C128,-640.131 128,-630.9743 128,-622.4166"/>
<polygon fill="#c0c0c0" stroke="#c0c0c0" stroke-width="2" points="131.5001,-622.4132 128,-612.4133 124.5001,-622.4133 131.5001,-622.4132"/>
</g>
<!-- 12 -->
<g id="node13" class="node">
<title>12</title>
<path fill="none" stroke="#61d856" stroke-width="2" d="M87.5,-756C87.5,-756 40.5,-756 40.5,-756 34.5,-756 28.5,-750 28.5,-744 28.5,-744 28.5,-732 28.5,-732 28.5,-726 34.5,-720 40.5,-720 40.5,-720 87.5,-720 87.5,-720 93.5,-720 99.5,-726 99.5,-732 99.5,-732 99.5,-744 99.5,-744 99.5,-750 93.5,-756 87.5,-756"/>
<text text-anchor="middle" x="64" y="-735.5" font-family="sans" font-size="10.00" fill="#000000">gatk_haplo</text>
</g>
<!-- 12&#45;&gt;11 -->
<g id="edge13" class="edge">
<title>12&#45;&gt;11</title>
<path fill="none" stroke="#c0c0c0" stroke-width="2" d="M80.1499,-719.8314C87.6717,-711.3694 96.7565,-701.1489 104.9804,-691.8971"/>
<polygon fill="#c0c0c0" stroke="#c0c0c0" stroke-width="2" points="107.6049,-694.2127 111.6327,-684.4133 102.373,-689.5621 107.6049,-694.2127"/>
</g>
<!-- 13 -->
<g id="node14" class="node">
<title>13</title>
<path fill="none" stroke="#56d863" stroke-width="2" d="M217,-828C217,-828 167,-828 167,-828 161,-828 155,-822 155,-816 155,-816 155,-804 155,-804 155,-798 161,-792 167,-792 167,-792 217,-792 217,-792 223,-792 229,-798 229,-804 229,-804 229,-816 229,-816 229,-822 223,-828 217,-828"/>
<text text-anchor="middle" x="192" y="-807.5" font-family="sans" font-size="10.00" fill="#000000">sort_bamLR</text>
</g>
<!-- 13&#45;&gt;11 -->
<g id="edge14" class="edge">
<title>13&#45;&gt;11</title>
<path fill="none" stroke="#c0c0c0" stroke-width="2" d="M172.8021,-791.6291C163.6751,-781.8663 153.3881,-769.1774 147,-756 137.5662,-736.54 132.7964,-712.4835 130.396,-694.139"/>
<polygon fill="#c0c0c0" stroke="#c0c0c0" stroke-width="2" points="133.8585,-693.6108 129.2392,-684.076 126.9043,-694.4104 133.8585,-693.6108"/>
</g>
<!-- 14 -->
<g id="node15" class="node">
<title>14</title>
<path fill="none" stroke="#56d8d0" stroke-width="2" d="M215.5,-756C215.5,-756 168.5,-756 168.5,-756 162.5,-756 156.5,-750 156.5,-744 156.5,-744 156.5,-732 156.5,-732 156.5,-726 162.5,-720 168.5,-720 168.5,-720 215.5,-720 215.5,-720 221.5,-720 227.5,-726 227.5,-732 227.5,-732 227.5,-744 227.5,-744 227.5,-750 221.5,-756 215.5,-756"/>
<text text-anchor="middle" x="192" y="-735.5" font-family="sans" font-size="10.00" fill="#000000">index_bam</text>
</g>
<!-- 13&#45;&gt;14 -->
<g id="edge18" class="edge">
<title>13&#45;&gt;14</title>
<path fill="none" stroke="#c0c0c0" stroke-width="2" d="M192,-791.8314C192,-784.131 192,-774.9743 192,-766.4166"/>
<polygon fill="#c0c0c0" stroke="#c0c0c0" stroke-width="2" points="195.5001,-766.4132 192,-756.4133 188.5001,-766.4133 195.5001,-766.4132"/>
</g>
<!-- 14&#45;&gt;11 -->
<g id="edge15" class="edge">
<title>14&#45;&gt;11</title>
<path fill="none" stroke="#c0c0c0" stroke-width="2" d="M175.8501,-719.8314C168.3283,-711.3694 159.2435,-701.1489 151.0196,-691.8971"/>
<polygon fill="#c0c0c0" stroke="#c0c0c0" stroke-width="2" points="153.627,-689.5621 144.3673,-684.4133 148.3951,-694.2127 153.627,-689.5621"/>
</g>
<!-- 15 -->
<g id="node16" class="node">
<title>15</title>
<path fill="none" stroke="#d87d56" stroke-width="2" d="M102,-828C102,-828 26,-828 26,-828 20,-828 14,-822 14,-816 14,-816 14,-804 14,-804 14,-798 20,-792 26,-792 26,-792 102,-792 102,-792 108,-792 114,-798 114,-804 114,-804 114,-816 114,-816 114,-822 108,-828 102,-828"/>
<text text-anchor="middle" x="64" y="-807.5" font-family="sans" font-size="10.00" fill="#000000">picard_AddOrRep</text>
</g>
<!-- 15&#45;&gt;12 -->
<g id="edge16" class="edge">
<title>15&#45;&gt;12</title>
<path fill="none" stroke="#c0c0c0" stroke-width="2" d="M64,-791.8314C64,-784.131 64,-774.9743 64,-766.4166"/>
<polygon fill="#c0c0c0" stroke="#c0c0c0" stroke-width="2" points="67.5001,-766.4132 64,-756.4133 60.5001,-766.4133 67.5001,-766.4132"/>
</g>
<!-- 16 -->
<g id="node17" class="node">
<title>16</title>
<path fill="none" stroke="#56d873" stroke-width="2" d="M226,-900C226,-900 158,-900 158,-900 152,-900 146,-894 146,-888 146,-888 146,-876 146,-876 146,-870 152,-864 158,-864 158,-864 226,-864 226,-864 232,-864 238,-870 238,-876 238,-876 238,-888 238,-888 238,-894 232,-900 226,-900"/>
<text text-anchor="middle" x="192" y="-879.5" font-family="sans" font-size="10.00" fill="#000000">sam_to_bamLR</text>
</g>
<!-- 16&#45;&gt;13 -->
<g id="edge17" class="edge">
<title>16&#45;&gt;13</title>
<path fill="none" stroke="#c0c0c0" stroke-width="2" d="M192,-863.8314C192,-856.131 192,-846.9743 192,-838.4166"/>
<polygon fill="#c0c0c0" stroke="#c0c0c0" stroke-width="2" points="195.5001,-838.4132 192,-828.4133 188.5001,-838.4133 195.5001,-838.4132"/>
</g>
<!-- 17 -->
<g id="node18" class="node">
<title>17</title>
<path fill="none" stroke="#d6d856" stroke-width="2" d="M116,-900C116,-900 12,-900 12,-900 6,-900 0,-894 0,-888 0,-888 0,-876 0,-876 0,-870 6,-864 12,-864 12,-864 116,-864 116,-864 122,-864 128,-870 128,-876 128,-876 128,-888 128,-888 128,-894 122,-900 116,-900"/>
<text text-anchor="middle" x="64" y="-879.5" font-family="sans" font-size="10.00" fill="#000000">picard_markduplicates</text>
</g>
<!-- 17&#45;&gt;15 -->
<g id="edge19" class="edge">
<title>17&#45;&gt;15</title>
<path fill="none" stroke="#c0c0c0" stroke-width="2" d="M64,-863.8314C64,-856.131 64,-846.9743 64,-838.4166"/>
<polygon fill="#c0c0c0" stroke="#c0c0c0" stroke-width="2" points="67.5001,-838.4132 64,-828.4133 60.5001,-838.4133 67.5001,-838.4132"/>
</g>
<!-- 18 -->
<g id="node19" class="node">
<title>18</title>
<path fill="none" stroke="#d88d56" stroke-width="2" d="M208,-972C208,-972 176,-972 176,-972 170,-972 164,-966 164,-960 164,-960 164,-948 164,-948 164,-942 170,-936 176,-936 176,-936 208,-936 208,-936 214,-936 220,-942 220,-948 220,-948 220,-960 220,-960 220,-966 214,-972 208,-972"/>
<text text-anchor="middle" x="192" y="-951.5" font-family="sans" font-size="10.00" fill="#000000">map_LR</text>
</g>
<!-- 18&#45;&gt;16 -->
<g id="edge20" class="edge">
<title>18&#45;&gt;16</title>
<path fill="none" stroke="#c0c0c0" stroke-width="2" d="M192,-935.8314C192,-928.131 192,-918.9743 192,-910.4166"/>
<polygon fill="#c0c0c0" stroke="#c0c0c0" stroke-width="2" points="195.5001,-910.4132 192,-900.4133 188.5001,-910.4133 195.5001,-910.4132"/>
</g>
<!-- 19 -->
<g id="node20" class="node">
<title>19</title>
<path fill="none" stroke="#56a2d8" stroke-width="2" d="M93.5,-972C93.5,-972 34.5,-972 34.5,-972 28.5,-972 22.5,-966 22.5,-960 22.5,-960 22.5,-948 22.5,-948 22.5,-942 28.5,-936 34.5,-936 34.5,-936 93.5,-936 93.5,-936 99.5,-936 105.5,-942 105.5,-948 105.5,-948 105.5,-960 105.5,-960 105.5,-966 99.5,-972 93.5,-972"/>
<text text-anchor="middle" x="64" y="-951.5" font-family="sans" font-size="10.00" fill="#000000">mapped_bam</text>
</g>
<!-- 19&#45;&gt;17 -->
<g id="edge21" class="edge">
<title>19&#45;&gt;17</title>
<path fill="none" stroke="#c0c0c0" stroke-width="2" d="M64,-935.8314C64,-928.131 64,-918.9743 64,-910.4166"/>
<polygon fill="#c0c0c0" stroke="#c0c0c0" stroke-width="2" points="67.5001,-910.4132 64,-900.4133 60.5001,-910.4133 67.5001,-910.4132"/>
</g>
<!-- 20 -->
<g id="node21" class="node">
<title>20</title>
<path fill="none" stroke="#d86656" stroke-width="2" d="M212,-1044C212,-1044 172,-1044 172,-1044 166,-1044 160,-1038 160,-1032 160,-1032 160,-1020 160,-1020 160,-1014 166,-1008 172,-1008 172,-1008 212,-1008 212,-1008 218,-1008 224,-1014 224,-1020 224,-1020 224,-1032 224,-1032 224,-1038 218,-1044 212,-1044"/>
<text text-anchor="middle" x="192" y="-1023.5" font-family="sans" font-size="10.00" fill="#000000">trim_pore</text>
</g>
<!-- 20&#45;&gt;18 -->
<g id="edge22" class="edge">
<title>20&#45;&gt;18</title>
<path fill="none" stroke="#c0c0c0" stroke-width="2" d="M192,-1007.8314C192,-1000.131 192,-990.9743 192,-982.4166"/>
<polygon fill="#c0c0c0" stroke="#c0c0c0" stroke-width="2" points="195.5001,-982.4132 192,-972.4133 188.5001,-982.4133 195.5001,-982.4132"/>
</g>
<!-- 21 -->
<g id="node22" class="node">
<title>21</title>
<path fill="none" stroke="#56d8c1" stroke-width="2" d="M89.5,-1044C89.5,-1044 38.5,-1044 38.5,-1044 32.5,-1044 26.5,-1038 26.5,-1032 26.5,-1032 26.5,-1020 26.5,-1020 26.5,-1014 32.5,-1008 38.5,-1008 38.5,-1008 89.5,-1008 89.5,-1008 95.5,-1008 101.5,-1014 101.5,-1020 101.5,-1020 101.5,-1032 101.5,-1032 101.5,-1038 95.5,-1044 89.5,-1044"/>
<text text-anchor="middle" x="64" y="-1023.5" font-family="sans" font-size="10.00" fill="#000000">sort_bamSR</text>
</g>
<!-- 21&#45;&gt;19 -->
<g id="edge23" class="edge">
<title>21&#45;&gt;19</title>
<path fill="none" stroke="#c0c0c0" stroke-width="2" d="M64,-1007.8314C64,-1000.131 64,-990.9743 64,-982.4166"/>
<polygon fill="#c0c0c0" stroke="#c0c0c0" stroke-width="2" points="67.5001,-982.4132 64,-972.4133 60.5001,-982.4133 67.5001,-982.4132"/>
</g>
<!-- 22 -->
<g id="node23" class="node">
<title>22</title>
<path fill="none" stroke="#88d856" stroke-width="2" d="M212.5,-1116C212.5,-1116 171.5,-1116 171.5,-1116 165.5,-1116 159.5,-1110 159.5,-1104 159.5,-1104 159.5,-1092 159.5,-1092 159.5,-1086 165.5,-1080 171.5,-1080 171.5,-1080 212.5,-1080 212.5,-1080 218.5,-1080 224.5,-1086 224.5,-1092 224.5,-1092 224.5,-1104 224.5,-1104 224.5,-1110 218.5,-1116 212.5,-1116"/>
<text text-anchor="middle" x="192" y="-1095.5" font-family="sans" font-size="10.00" fill="#000000">merge_LR</text>
</g>
<!-- 22&#45;&gt;20 -->
<g id="edge24" class="edge">
<title>22&#45;&gt;20</title>
<path fill="none" stroke="#c0c0c0" stroke-width="2" d="M192,-1079.8314C192,-1072.131 192,-1062.9743 192,-1054.4166"/>
<polygon fill="#c0c0c0" stroke="#c0c0c0" stroke-width="2" points="195.5001,-1054.4132 192,-1044.4133 188.5001,-1054.4133 195.5001,-1054.4132"/>
</g>
<!-- 23 -->
<g id="node24" class="node">
<title>23</title>
<path fill="none" stroke="#56d8a9" stroke-width="2" d="M98,-1116C98,-1116 30,-1116 30,-1116 24,-1116 18,-1110 18,-1104 18,-1104 18,-1092 18,-1092 18,-1086 24,-1080 30,-1080 30,-1080 98,-1080 98,-1080 104,-1080 110,-1086 110,-1092 110,-1092 110,-1104 110,-1104 110,-1110 104,-1116 98,-1116"/>
<text text-anchor="middle" x="64" y="-1095.5" font-family="sans" font-size="10.00" fill="#000000">sam_to_bamSR</text>
</g>
<!-- 23&#45;&gt;21 -->
<g id="edge25" class="edge">
<title>23&#45;&gt;21</title>
<path fill="none" stroke="#c0c0c0" stroke-width="2" d="M64,-1079.8314C64,-1072.131 64,-1062.9743 64,-1054.4166"/>
<polygon fill="#c0c0c0" stroke="#c0c0c0" stroke-width="2" points="67.5001,-1054.4132 64,-1044.4133 60.5001,-1054.4133 67.5001,-1054.4132"/>
</g>
<!-- 24 -->
<g id="node25" class="node">
<title>24</title>
<path fill="none" stroke="#97d856" stroke-width="2" d="M80.5,-1188C80.5,-1188 47.5,-1188 47.5,-1188 41.5,-1188 35.5,-1182 35.5,-1176 35.5,-1176 35.5,-1164 35.5,-1164 35.5,-1158 41.5,-1152 47.5,-1152 47.5,-1152 80.5,-1152 80.5,-1152 86.5,-1152 92.5,-1158 92.5,-1164 92.5,-1164 92.5,-1176 92.5,-1176 92.5,-1182 86.5,-1188 80.5,-1188"/>
<text text-anchor="middle" x="64" y="-1167.5" font-family="sans" font-size="10.00" fill="#000000">bwa_aln</text>
</g>
<!-- 24&#45;&gt;23 -->
<g id="edge26" class="edge">
<title>24&#45;&gt;23</title>
<path fill="none" stroke="#c0c0c0" stroke-width="2" d="M64,-1151.8314C64,-1144.131 64,-1134.9743 64,-1126.4166"/>
<polygon fill="#c0c0c0" stroke="#c0c0c0" stroke-width="2" points="67.5001,-1126.4132 64,-1116.4133 60.5001,-1126.4133 67.5001,-1126.4132"/>
</g>
<!-- 25 -->
<g id="node26" class="node">
<title>25</title>
<path fill="none" stroke="#567bd8" stroke-width="2" d="M89,-1260C89,-1260 39,-1260 39,-1260 33,-1260 27,-1254 27,-1248 27,-1248 27,-1236 27,-1236 27,-1230 33,-1224 39,-1224 39,-1224 89,-1224 89,-1224 95,-1224 101,-1230 101,-1236 101,-1236 101,-1248 101,-1248 101,-1254 95,-1260 89,-1260"/>
<text text-anchor="middle" x="64" y="-1239.5" font-family="sans" font-size="10.00" fill="#000000">index_fasta</text>
</g>
<!-- 25&#45;&gt;24 -->
<g id="edge27" class="edge">
<title>25&#45;&gt;24</title>
<path fill="none" stroke="#c0c0c0" stroke-width="2" d="M64,-1223.8314C64,-1216.131 64,-1206.9743 64,-1198.4166"/>
<polygon fill="#c0c0c0" stroke="#c0c0c0" stroke-width="2" points="67.5001,-1198.4132 64,-1188.4133 60.5001,-1198.4133 67.5001,-1198.4132"/>
</g>
</g>
</svg>
