<?xml version="1.0" encoding="UTF-8" standalone="no"?>
<!DOCTYPE svg PUBLIC "-//W3C//DTD SVG 1.1//EN"
 "http://www.w3.org/Graphics/SVG/1.1/DTD/svg11.dtd">
<!-- Generated by graphviz version 2.42.3 (20191010.1750)
 -->
<!-- Title: snakemake_dag Pages: 1 -->
<svg width="296pt" height="1268pt"
 viewBox="0.00 0.00 296.00 1268.00" xmlns="http://www.w3.org/2000/svg" xmlns:xlink="http://www.w3.org/1999/xlink">
<g id="graph0" class="graph" transform="scale(1 1) rotate(0) translate(4 1264)">
<title>snakemake_dag</title>
<polygon fill="white" stroke="transparent" points="-4,4 -4,-1264 292,-1264 292,4 -4,4"/>
<!-- 0 -->
<g id="node1" class="node">
<title>0</title>
<path fill="none" stroke="#56d882" stroke-width="2" stroke-dasharray="5,2" d="M150,-36C150,-36 120,-36 120,-36 114,-36 108,-30 108,-24 108,-24 108,-12 108,-12 108,-6 114,0 120,0 120,0 150,0 150,0 156,0 162,-6 162,-12 162,-12 162,-24 162,-24 162,-30 156,-36 150,-36"/>
<text text-anchor="middle" x="135" y="-15.5" font-family="sans" font-size="10.00">all</text>
</g>
<!-- 1 -->
<g id="node2" class="node">
<title>1</title>
<path fill="none" stroke="#d8cb56" stroke-width="2" stroke-dasharray="5,2" d="M276,-108C276,-108 214,-108 214,-108 208,-108 202,-102 202,-96 202,-96 202,-84 202,-84 202,-78 208,-72 214,-72 214,-72 276,-72 276,-72 282,-72 288,-78 288,-84 288,-84 288,-96 288,-96 288,-102 282,-108 276,-108"/>
<text text-anchor="middle" x="245" y="-87.5" font-family="sans" font-size="10.00">memmer_plot</text>
</g>
<!-- 1&#45;&gt;0 -->
<g id="edge1" class="edge">
<title>1&#45;&gt;0</title>
<path fill="none" stroke="grey" stroke-width="2" d="M218.09,-71.88C203.84,-62.81 186.15,-51.55 170.76,-41.76"/>
<polygon fill="grey" stroke="grey" stroke-width="2" points="172.33,-38.61 162.01,-36.19 168.57,-44.51 172.33,-38.61"/>
</g>
<!-- 2 -->
<g id="node3" class="node">
<title>2</title>
<path fill="none" stroke="#9fd856" stroke-width="2" stroke-dasharray="5,2" d="M76.5,-612C76.5,-612 39.5,-612 39.5,-612 33.5,-612 27.5,-606 27.5,-600 27.5,-600 27.5,-588 27.5,-588 27.5,-582 33.5,-576 39.5,-576 39.5,-576 76.5,-576 76.5,-576 82.5,-576 88.5,-582 88.5,-588 88.5,-588 88.5,-600 88.5,-600 88.5,-606 82.5,-612 76.5,-612"/>
<text text-anchor="middle" x="58" y="-591.5" font-family="sans" font-size="10.00">vcf_stats</text>
</g>
<!-- 2&#45;&gt;0 -->
<g id="edge2" class="edge">
<title>2&#45;&gt;0</title>
<path fill="none" stroke="grey" stroke-width="2" d="M58,-575.95C58,-549.29 58,-496.11 58,-451 58,-451 58,-451 58,-161 58,-120.55 56.89,-107.09 77,-72 83.31,-61 92.68,-51 102.06,-42.72"/>
<polygon fill="grey" stroke="grey" stroke-width="2" points="104.45,-45.29 109.88,-36.19 99.96,-39.92 104.45,-45.29"/>
</g>
<!-- 3 -->
<g id="node4" class="node">
<title>3</title>
<path fill="none" stroke="#d88556" stroke-width="2" stroke-dasharray="5,2" d="M172,-108C172,-108 98,-108 98,-108 92,-108 86,-102 86,-96 86,-96 86,-84 86,-84 86,-78 92,-72 98,-72 98,-72 172,-72 172,-72 178,-72 184,-78 184,-84 184,-84 184,-96 184,-96 184,-102 178,-108 172,-108"/>
<text text-anchor="middle" x="135" y="-87.5" font-family="sans" font-size="10.00">mummer_chrom</text>
</g>
<!-- 3&#45;&gt;0 -->
<g id="edge3" class="edge">
<title>3&#45;&gt;0</title>
<path fill="none" stroke="grey" stroke-width="2" d="M135,-71.7C135,-63.98 135,-54.71 135,-46.11"/>
<polygon fill="grey" stroke="grey" stroke-width="2" points="138.5,-46.1 135,-36.1 131.5,-46.1 138.5,-46.1"/>
</g>
<!-- 4 -->
<g id="node5" class="node">
<title>4</title>
<path fill="none" stroke="#d8ac56" stroke-width="2" stroke-dasharray="5,2" d="M264.5,-180C264.5,-180 219.5,-180 219.5,-180 213.5,-180 207.5,-174 207.5,-168 207.5,-168 207.5,-156 207.5,-156 207.5,-150 213.5,-144 219.5,-144 219.5,-144 264.5,-144 264.5,-144 270.5,-144 276.5,-150 276.5,-156 276.5,-156 276.5,-168 276.5,-168 276.5,-174 270.5,-180 264.5,-180"/>
<text text-anchor="middle" x="242" y="-159.5" font-family="sans" font-size="10.00">delta_filter</text>
</g>
<!-- 4&#45;&gt;1 -->
<g id="edge4" class="edge">
<title>4&#45;&gt;1</title>
<path fill="none" stroke="grey" stroke-width="2" d="M242.74,-143.7C243.07,-135.98 243.47,-126.71 243.84,-118.11"/>
<polygon fill="grey" stroke="grey" stroke-width="2" points="247.34,-118.25 244.27,-108.1 240.34,-117.95 247.34,-118.25"/>
</g>
<!-- 5 -->
<g id="node6" class="node">
<title>5</title>
<path fill="none" stroke="#569ad8" stroke-width="2" stroke-dasharray="5,2" d="M87.5,-756C87.5,-756 40.5,-756 40.5,-756 34.5,-756 28.5,-750 28.5,-744 28.5,-744 28.5,-732 28.5,-732 28.5,-726 34.5,-720 40.5,-720 40.5,-720 87.5,-720 87.5,-720 93.5,-720 99.5,-726 99.5,-732 99.5,-732 99.5,-744 99.5,-744 99.5,-750 93.5,-756 87.5,-756"/>
<text text-anchor="middle" x="64" y="-735.5" font-family="sans" font-size="10.00">gatk_haplo</text>
</g>
<!-- 5&#45;&gt;2 -->
<g id="edge5" class="edge">
<title>5&#45;&gt;2</title>
<path fill="none" stroke="grey" stroke-width="2" d="M63.28,-719.87C62.25,-695.67 60.38,-651.21 59.16,-622.39"/>
<polygon fill="grey" stroke="grey" stroke-width="2" points="62.65,-622.03 58.73,-612.19 55.65,-622.33 62.65,-622.03"/>
</g>
<!-- 18 -->
<g id="node19" class="node">
<title>18</title>
<path fill="none" stroke="#56d8d0" stroke-width="2" stroke-dasharray="5,2" d="M156.5,-684C156.5,-684 105.5,-684 105.5,-684 99.5,-684 93.5,-678 93.5,-672 93.5,-672 93.5,-660 93.5,-660 93.5,-654 99.5,-648 105.5,-648 105.5,-648 156.5,-648 156.5,-648 162.5,-648 168.5,-654 168.5,-660 168.5,-660 168.5,-672 168.5,-672 168.5,-678 162.5,-684 156.5,-684"/>
<text text-anchor="middle" x="131" y="-663.5" font-family="sans" font-size="10.00">what_phase</text>
</g>
<!-- 5&#45;&gt;18 -->
<g id="edge22" class="edge">
<title>5&#45;&gt;18</title>
<path fill="none" stroke="grey" stroke-width="2" d="M80.56,-719.7C88.68,-711.22 98.59,-700.86 107.47,-691.58"/>
<polygon fill="grey" stroke="grey" stroke-width="2" points="110.24,-693.75 114.63,-684.1 105.19,-688.91 110.24,-693.75"/>
</g>
<!-- 6 -->
<g id="node7" class="node">
<title>6</title>
<path fill="none" stroke="#d6d856" stroke-width="2" stroke-dasharray="5,2" d="M170,-252C170,-252 120,-252 120,-252 114,-252 108,-246 108,-240 108,-240 108,-228 108,-228 108,-222 114,-216 120,-216 120,-216 170,-216 170,-216 176,-216 182,-222 182,-228 182,-228 182,-240 182,-240 182,-246 176,-252 170,-252"/>
<text text-anchor="middle" x="145" y="-231.5" font-family="sans" font-size="10.00">split_chrom</text>
</g>
<!-- 6&#45;&gt;3 -->
<g id="edge6" class="edge">
<title>6&#45;&gt;3</title>
<path fill="none" stroke="grey" stroke-width="2" d="M143.79,-215.87C142.09,-191.67 138.96,-147.21 136.93,-118.39"/>
<polygon fill="grey" stroke="grey" stroke-width="2" points="140.4,-117.92 136.21,-108.19 133.42,-118.41 140.4,-117.92"/>
</g>
<!-- 7 -->
<g id="node8" class="node">
<title>7</title>
<path fill="none" stroke="#d85656" stroke-width="2" stroke-dasharray="5,2" d="M252,-252C252,-252 222,-252 222,-252 216,-252 210,-246 210,-240 210,-240 210,-228 210,-228 210,-222 216,-216 222,-216 222,-216 252,-216 252,-216 258,-216 264,-222 264,-228 264,-228 264,-240 264,-240 264,-246 258,-252 252,-252"/>
<text text-anchor="middle" x="237" y="-231.5" font-family="sans" font-size="10.00">nucmer</text>
</g>
<!-- 7&#45;&gt;4 -->
<g id="edge7" class="edge">
<title>7&#45;&gt;4</title>
<path fill="none" stroke="grey" stroke-width="2" d="M238.24,-215.7C238.79,-207.98 239.45,-198.71 240.06,-190.11"/>
<polygon fill="grey" stroke="grey" stroke-width="2" points="243.56,-190.33 240.78,-180.1 236.57,-189.83 243.56,-190.33"/>
</g>
<!-- 8 -->
<g id="node9" class="node">
<title>8</title>
<path fill="none" stroke="#70d856" stroke-width="2" stroke-dasharray="5,2" d="M102,-828C102,-828 26,-828 26,-828 20,-828 14,-822 14,-816 14,-816 14,-804 14,-804 14,-798 20,-792 26,-792 26,-792 102,-792 102,-792 108,-792 114,-798 114,-804 114,-804 114,-816 114,-816 114,-822 108,-828 102,-828"/>
<text text-anchor="middle" x="64" y="-807.5" font-family="sans" font-size="10.00">picard_AddOrRep</text>
</g>
<!-- 8&#45;&gt;5 -->
<g id="edge8" class="edge">
<title>8&#45;&gt;5</title>
<path fill="none" stroke="grey" stroke-width="2" d="M64,-791.7C64,-783.98 64,-774.71 64,-766.11"/>
<polygon fill="grey" stroke="grey" stroke-width="2" points="67.5,-766.1 64,-756.1 60.5,-766.1 67.5,-766.1"/>
</g>
<!-- 9 -->
<g id="node10" class="node">
<title>9</title>
<path fill="none" stroke="#d89c56" stroke-width="2" stroke-dasharray="5,2" d="M180,-324C180,-324 136,-324 136,-324 130,-324 124,-318 124,-312 124,-312 124,-300 124,-300 124,-294 130,-288 136,-288 136,-288 180,-288 180,-288 186,-288 192,-294 192,-300 192,-300 192,-312 192,-312 192,-318 186,-324 180,-324"/>
<text text-anchor="middle" x="158" y="-303.5" font-family="sans" font-size="10.00">sort_haplo</text>
</g>
<!-- 9&#45;&gt;6 -->
<g id="edge9" class="edge">
<title>9&#45;&gt;6</title>
<path fill="none" stroke="grey" stroke-width="2" d="M154.79,-287.7C153.35,-279.98 151.63,-270.71 150.04,-262.11"/>
<polygon fill="grey" stroke="grey" stroke-width="2" points="153.44,-261.3 148.18,-252.1 146.56,-262.58 153.44,-261.3"/>
</g>
<!-- 9&#45;&gt;7 -->
<g id="edge10" class="edge">
<title>9&#45;&gt;7</title>
<path fill="none" stroke="grey" stroke-width="2" d="M177.53,-287.7C187.38,-278.97 199.49,-268.24 210.2,-258.75"/>
<polygon fill="grey" stroke="grey" stroke-width="2" points="212.53,-261.36 217.7,-252.1 207.89,-256.12 212.53,-261.36"/>
</g>
<!-- 10 -->
<g id="node11" class="node">
<title>10</title>
<path fill="none" stroke="#afd856" stroke-width="2" stroke-dasharray="5,2" d="M116,-900C116,-900 12,-900 12,-900 6,-900 0,-894 0,-888 0,-888 0,-876 0,-876 0,-870 6,-864 12,-864 12,-864 116,-864 116,-864 122,-864 128,-870 128,-876 128,-876 128,-888 128,-888 128,-894 122,-900 116,-900"/>
<text text-anchor="middle" x="64" y="-879.5" font-family="sans" font-size="10.00">picard_markduplicates</text>
</g>
<!-- 10&#45;&gt;8 -->
<g id="edge11" class="edge">
<title>10&#45;&gt;8</title>
<path fill="none" stroke="grey" stroke-width="2" d="M64,-863.7C64,-855.98 64,-846.71 64,-838.11"/>
<polygon fill="grey" stroke="grey" stroke-width="2" points="67.5,-838.1 64,-828.1 60.5,-838.1 67.5,-838.1"/>
</g>
<!-- 11 -->
<g id="node12" class="node">
<title>11</title>
<path fill="none" stroke="#d87556" stroke-width="2" stroke-dasharray="5,2" d="M186,-396C186,-396 130,-396 130,-396 124,-396 118,-390 118,-384 118,-384 118,-372 118,-372 118,-366 124,-360 130,-360 130,-360 186,-360 186,-360 192,-360 198,-366 198,-372 198,-372 198,-384 198,-384 198,-390 192,-396 186,-396"/>
<text text-anchor="middle" x="158" y="-375.5" font-family="sans" font-size="10.00">merge_haplo</text>
</g>
<!-- 11&#45;&gt;9 -->
<g id="edge12" class="edge">
<title>11&#45;&gt;9</title>
<path fill="none" stroke="grey" stroke-width="2" d="M158,-359.7C158,-351.98 158,-342.71 158,-334.11"/>
<polygon fill="grey" stroke="grey" stroke-width="2" points="161.5,-334.1 158,-324.1 154.5,-334.1 161.5,-334.1"/>
</g>
<!-- 12 -->
<g id="node13" class="node">
<title>12</title>
<path fill="none" stroke="#80d856" stroke-width="2" stroke-dasharray="5,2" d="M93.5,-972C93.5,-972 34.5,-972 34.5,-972 28.5,-972 22.5,-966 22.5,-960 22.5,-960 22.5,-948 22.5,-948 22.5,-942 28.5,-936 34.5,-936 34.5,-936 93.5,-936 93.5,-936 99.5,-936 105.5,-942 105.5,-948 105.5,-948 105.5,-960 105.5,-960 105.5,-966 99.5,-972 93.5,-972"/>
<text text-anchor="middle" x="64" y="-951.5" font-family="sans" font-size="10.00">mapped_bam</text>
</g>
<!-- 12&#45;&gt;10 -->
<g id="edge13" class="edge">
<title>12&#45;&gt;10</title>
<path fill="none" stroke="grey" stroke-width="2" d="M64,-935.7C64,-927.98 64,-918.71 64,-910.11"/>
<polygon fill="grey" stroke="grey" stroke-width="2" points="67.5,-910.1 64,-900.1 60.5,-910.1 67.5,-910.1"/>
</g>
<!-- 13 -->
<g id="node14" class="node">
<title>13</title>
<path fill="none" stroke="#56d8a2" stroke-width="2" stroke-dasharray="5,2" d="M183,-468C183,-468 133,-468 133,-468 127,-468 121,-462 121,-456 121,-456 121,-444 121,-444 121,-438 127,-432 133,-432 133,-432 183,-432 183,-432 189,-432 195,-438 195,-444 195,-444 195,-456 195,-456 195,-462 189,-468 183,-468"/>
<text text-anchor="middle" x="158" y="-447.5" font-family="sans" font-size="10.00">haplo_fasta</text>
</g>
<!-- 13&#45;&gt;11 -->
<g id="edge14" class="edge">
<title>13&#45;&gt;11</title>
<path fill="none" stroke="grey" stroke-width="2" d="M158,-431.7C158,-423.98 158,-414.71 158,-406.11"/>
<polygon fill="grey" stroke="grey" stroke-width="2" points="161.5,-406.1 158,-396.1 154.5,-406.1 161.5,-406.1"/>
</g>
<!-- 14 -->
<g id="node15" class="node">
<title>14</title>
<path fill="none" stroke="#61d856" stroke-width="2" stroke-dasharray="5,2" d="M91.5,-1044C91.5,-1044 40.5,-1044 40.5,-1044 34.5,-1044 28.5,-1038 28.5,-1032 28.5,-1032 28.5,-1020 28.5,-1020 28.5,-1014 34.5,-1008 40.5,-1008 40.5,-1008 91.5,-1008 91.5,-1008 97.5,-1008 103.5,-1014 103.5,-1020 103.5,-1020 103.5,-1032 103.5,-1032 103.5,-1038 97.5,-1044 91.5,-1044"/>
<text text-anchor="middle" x="66" y="-1023.5" font-family="sans" font-size="10.00">sort_bamSR</text>
</g>
<!-- 14&#45;&gt;12 -->
<g id="edge15" class="edge">
<title>14&#45;&gt;12</title>
<path fill="none" stroke="grey" stroke-width="2" d="M65.51,-1007.7C65.29,-999.98 65.02,-990.71 64.77,-982.11"/>
<polygon fill="grey" stroke="grey" stroke-width="2" points="68.27,-982 64.49,-972.1 61.28,-982.2 68.27,-982"/>
</g>
<!-- 15 -->
<g id="node16" class="node">
<title>15</title>
<path fill="none" stroke="#5663d8" stroke-width="2" stroke-dasharray="5,2" d="M149,-612C149,-612 119,-612 119,-612 113,-612 107,-606 107,-600 107,-600 107,-588 107,-588 107,-582 113,-576 119,-576 119,-576 149,-576 149,-576 155,-576 161,-582 161,-588 161,-588 161,-600 161,-600 161,-606 155,-612 149,-612"/>
<text text-anchor="middle" x="134" y="-591.5" font-family="sans" font-size="10.00">bgzip</text>
</g>
<!-- 15&#45;&gt;13 -->
<g id="edge16" class="edge">
<title>15&#45;&gt;13</title>
<path fill="none" stroke="grey" stroke-width="2" d="M131.86,-575.71C130.12,-557.61 128.72,-528.47 134,-504 135.96,-494.92 139.61,-485.52 143.49,-477.2"/>
<polygon fill="grey" stroke="grey" stroke-width="2" points="146.73,-478.53 148.05,-468.02 140.46,-475.42 146.73,-478.53"/>
</g>
<!-- 16 -->
<g id="node17" class="node">
<title>16</title>
<path fill="none" stroke="#56d892" stroke-width="2" stroke-dasharray="5,2" d="M185,-540C185,-540 155,-540 155,-540 149,-540 143,-534 143,-528 143,-528 143,-516 143,-516 143,-510 149,-504 155,-504 155,-504 185,-504 185,-504 191,-504 197,-510 197,-516 197,-516 197,-528 197,-528 197,-534 191,-540 185,-540"/>
<text text-anchor="middle" x="170" y="-519.5" font-family="sans" font-size="10.00">tabix</text>
</g>
<!-- 15&#45;&gt;16 -->
<g id="edge20" class="edge">
<title>15&#45;&gt;16</title>
<path fill="none" stroke="grey" stroke-width="2" d="M142.9,-575.7C147,-567.73 151.95,-558.1 156.49,-549.26"/>
<polygon fill="grey" stroke="grey" stroke-width="2" points="159.74,-550.6 161.2,-540.1 153.52,-547.4 159.74,-550.6"/>
</g>
<!-- 16&#45;&gt;13 -->
<g id="edge17" class="edge">
<title>16&#45;&gt;13</title>
<path fill="none" stroke="grey" stroke-width="2" d="M167.03,-503.7C165.71,-495.98 164.12,-486.71 162.65,-478.11"/>
<polygon fill="grey" stroke="grey" stroke-width="2" points="166.07,-477.37 160.93,-468.1 159.17,-478.55 166.07,-477.37"/>
</g>
<!-- 17 -->
<g id="node18" class="node">
<title>17</title>
<path fill="none" stroke="#568ad8" stroke-width="2" stroke-dasharray="5,2" d="M105,-1116C105,-1116 37,-1116 37,-1116 31,-1116 25,-1110 25,-1104 25,-1104 25,-1092 25,-1092 25,-1086 31,-1080 37,-1080 37,-1080 105,-1080 105,-1080 111,-1080 117,-1086 117,-1092 117,-1092 117,-1104 117,-1104 117,-1110 111,-1116 105,-1116"/>
<text text-anchor="middle" x="71" y="-1095.5" font-family="sans" font-size="10.00">sam_to_bamSR</text>
</g>
<!-- 17&#45;&gt;14 -->
<g id="edge18" class="edge">
<title>17&#45;&gt;14</title>
<path fill="none" stroke="grey" stroke-width="2" d="M69.76,-1079.7C69.21,-1071.98 68.55,-1062.71 67.94,-1054.11"/>
<polygon fill="grey" stroke="grey" stroke-width="2" points="71.43,-1053.83 67.22,-1044.1 64.44,-1054.33 71.43,-1053.83"/>
</g>
<!-- 18&#45;&gt;15 -->
<g id="edge19" class="edge">
<title>18&#45;&gt;15</title>
<path fill="none" stroke="grey" stroke-width="2" d="M131.74,-647.7C132.07,-639.98 132.47,-630.71 132.84,-622.11"/>
<polygon fill="grey" stroke="grey" stroke-width="2" points="136.34,-622.25 133.27,-612.1 129.34,-621.95 136.34,-622.25"/>
</g>
<!-- 19 -->
<g id="node20" class="node">
<title>19</title>
<path fill="none" stroke="#56d8b1" stroke-width="2" stroke-dasharray="5,2" d="M95.5,-1188C95.5,-1188 62.5,-1188 62.5,-1188 56.5,-1188 50.5,-1182 50.5,-1176 50.5,-1176 50.5,-1164 50.5,-1164 50.5,-1158 56.5,-1152 62.5,-1152 62.5,-1152 95.5,-1152 95.5,-1152 101.5,-1152 107.5,-1158 107.5,-1164 107.5,-1164 107.5,-1176 107.5,-1176 107.5,-1182 101.5,-1188 95.5,-1188"/>
<text text-anchor="middle" x="79" y="-1167.5" font-family="sans" font-size="10.00">bwa_aln</text>
</g>
<!-- 19&#45;&gt;17 -->
<g id="edge21" class="edge">
<title>19&#45;&gt;17</title>
<path fill="none" stroke="grey" stroke-width="2" d="M77.02,-1151.7C76.14,-1143.98 75.08,-1134.71 74.1,-1126.11"/>
<polygon fill="grey" stroke="grey" stroke-width="2" points="77.57,-1125.64 72.95,-1116.1 70.61,-1126.44 77.57,-1125.64"/>
</g>
<!-- 20 -->
<g id="node21" class="node">
<title>20</title>
<path fill="none" stroke="#56d8c1" stroke-width="2" stroke-dasharray="5,2" d="M195,-828C195,-828 145,-828 145,-828 139,-828 133,-822 133,-816 133,-816 133,-804 133,-804 133,-798 139,-792 145,-792 145,-792 195,-792 195,-792 201,-792 207,-798 207,-804 207,-804 207,-816 207,-816 207,-822 201,-828 195,-828"/>
<text text-anchor="middle" x="170" y="-807.5" font-family="sans" font-size="10.00">sort_bamLR</text>
</g>
<!-- 20&#45;&gt;18 -->
<g id="edge23" class="edge">
<title>20&#45;&gt;18</title>
<path fill="none" stroke="grey" stroke-width="2" d="M162.2,-791.61C157.85,-781.4 152.6,-768.15 149,-756 142.96,-735.63 138.29,-712.04 135.22,-694.26"/>
<polygon fill="grey" stroke="grey" stroke-width="2" points="138.65,-693.57 133.56,-684.28 131.75,-694.72 138.65,-693.57"/>
</g>
<!-- 21 -->
<g id="node22" class="node">
<title>21</title>
<path fill="none" stroke="#c6d856" stroke-width="2" stroke-dasharray="5,2" d="M216.5,-756C216.5,-756 169.5,-756 169.5,-756 163.5,-756 157.5,-750 157.5,-744 157.5,-744 157.5,-732 157.5,-732 157.5,-726 163.5,-720 169.5,-720 169.5,-720 216.5,-720 216.5,-720 222.5,-720 228.5,-726 228.5,-732 228.5,-732 228.5,-744 228.5,-744 228.5,-750 222.5,-756 216.5,-756"/>
<text text-anchor="middle" x="193" y="-735.5" font-family="sans" font-size="10.00">index_bam</text>
</g>
<!-- 20&#45;&gt;21 -->
<g id="edge27" class="edge">
<title>20&#45;&gt;21</title>
<path fill="none" stroke="grey" stroke-width="2" d="M175.69,-791.7C178.25,-783.9 181.33,-774.51 184.18,-765.83"/>
<polygon fill="grey" stroke="grey" stroke-width="2" points="187.58,-766.7 187.38,-756.1 180.93,-764.51 187.58,-766.7"/>
</g>
<!-- 21&#45;&gt;18 -->
<g id="edge24" class="edge">
<title>21&#45;&gt;18</title>
<path fill="none" stroke="grey" stroke-width="2" d="M177.67,-719.7C170.24,-711.3 161.18,-701.07 153.02,-691.86"/>
<polygon fill="grey" stroke="grey" stroke-width="2" points="155.4,-689.27 146.15,-684.1 150.16,-693.91 155.4,-689.27"/>
</g>
<!-- 22 -->
<g id="node23" class="node">
<title>22</title>
<path fill="none" stroke="#d86656" stroke-width="2" stroke-dasharray="5,2" d="M143,-1260C143,-1260 93,-1260 93,-1260 87,-1260 81,-1254 81,-1248 81,-1248 81,-1236 81,-1236 81,-1230 87,-1224 93,-1224 93,-1224 143,-1224 143,-1224 149,-1224 155,-1230 155,-1236 155,-1236 155,-1248 155,-1248 155,-1254 149,-1260 143,-1260"/>
<text text-anchor="middle" x="118" y="-1239.5" font-family="sans" font-size="10.00">index_fasta</text>
</g>
<!-- 22&#45;&gt;19 -->
<g id="edge25" class="edge">
<title>22&#45;&gt;19</title>
<path fill="none" stroke="grey" stroke-width="2" d="M108.36,-1223.7C103.87,-1215.64 98.44,-1205.89 93.48,-1196.98"/>
<polygon fill="grey" stroke="grey" stroke-width="2" points="96.45,-1195.14 88.53,-1188.1 90.34,-1198.54 96.45,-1195.14"/>
</g>
<!-- 26 -->
<g id="node27" class="node">
<title>26</title>
<path fill="none" stroke="#d8bc56" stroke-width="2" stroke-dasharray="5,2" d="M183.5,-1188C183.5,-1188 142.5,-1188 142.5,-1188 136.5,-1188 130.5,-1182 130.5,-1176 130.5,-1176 130.5,-1164 130.5,-1164 130.5,-1158 136.5,-1152 142.5,-1152 142.5,-1152 183.5,-1152 183.5,-1152 189.5,-1152 195.5,-1158 195.5,-1164 195.5,-1164 195.5,-1176 195.5,-1176 195.5,-1182 189.5,-1188 183.5,-1188"/>
<text text-anchor="middle" x="163" y="-1167.5" font-family="sans" font-size="10.00">merge_LR</text>
</g>
<!-- 22&#45;&gt;26 -->
<g id="edge31" class="edge">
<title>22&#45;&gt;26</title>
<path fill="none" stroke="grey" stroke-width="2" d="M129.12,-1223.7C134.36,-1215.56 140.7,-1205.69 146.48,-1196.7"/>
<polygon fill="grey" stroke="grey" stroke-width="2" points="149.54,-1198.41 152,-1188.1 143.65,-1194.62 149.54,-1198.41"/>
</g>
<!-- 23 -->
<g id="node24" class="node">
<title>23</title>
<path fill="none" stroke="#56c9d8" stroke-width="2" stroke-dasharray="5,2" d="M204,-972C204,-972 136,-972 136,-972 130,-972 124,-966 124,-960 124,-960 124,-948 124,-948 124,-942 130,-936 136,-936 136,-936 204,-936 204,-936 210,-936 216,-942 216,-948 216,-948 216,-960 216,-960 216,-966 210,-972 204,-972"/>
<text text-anchor="middle" x="170" y="-951.5" font-family="sans" font-size="10.00">sam_to_bamLR</text>
</g>
<!-- 23&#45;&gt;20 -->
<g id="edge26" class="edge">
<title>23&#45;&gt;20</title>
<path fill="none" stroke="grey" stroke-width="2" d="M170,-935.87C170,-911.67 170,-867.21 170,-838.39"/>
<polygon fill="grey" stroke="grey" stroke-width="2" points="173.5,-838.19 170,-828.19 166.5,-838.19 173.5,-838.19"/>
</g>
<!-- 24 -->
<g id="node25" class="node">
<title>24</title>
<path fill="none" stroke="#56a9d8" stroke-width="2" stroke-dasharray="5,2" d="M185,-1044C185,-1044 153,-1044 153,-1044 147,-1044 141,-1038 141,-1032 141,-1032 141,-1020 141,-1020 141,-1014 147,-1008 153,-1008 153,-1008 185,-1008 185,-1008 191,-1008 197,-1014 197,-1020 197,-1020 197,-1032 197,-1032 197,-1038 191,-1044 185,-1044"/>
<text text-anchor="middle" x="169" y="-1023.5" font-family="sans" font-size="10.00">map_LR</text>
</g>
<!-- 24&#45;&gt;23 -->
<g id="edge28" class="edge">
<title>24&#45;&gt;23</title>
<path fill="none" stroke="grey" stroke-width="2" d="M169.25,-1007.7C169.36,-999.98 169.49,-990.71 169.61,-982.11"/>
<polygon fill="grey" stroke="grey" stroke-width="2" points="173.11,-982.15 169.76,-972.1 166.11,-982.05 173.11,-982.15"/>
</g>
<!-- 25 -->
<g id="node26" class="node">
<title>25</title>
<path fill="none" stroke="#567bd8" stroke-width="2" stroke-dasharray="5,2" d="M188,-1116C188,-1116 148,-1116 148,-1116 142,-1116 136,-1110 136,-1104 136,-1104 136,-1092 136,-1092 136,-1086 142,-1080 148,-1080 148,-1080 188,-1080 188,-1080 194,-1080 200,-1086 200,-1092 200,-1092 200,-1104 200,-1104 200,-1110 194,-1116 188,-1116"/>
<text text-anchor="middle" x="168" y="-1095.5" font-family="sans" font-size="10.00">trim_pore</text>
</g>
<!-- 25&#45;&gt;24 -->
<g id="edge29" class="edge">
<title>25&#45;&gt;24</title>
<path fill="none" stroke="grey" stroke-width="2" d="M168.25,-1079.7C168.36,-1071.98 168.49,-1062.71 168.61,-1054.11"/>
<polygon fill="grey" stroke="grey" stroke-width="2" points="172.11,-1054.15 168.76,-1044.1 165.11,-1054.05 172.11,-1054.15"/>
</g>
<!-- 26&#45;&gt;25 -->
<g id="edge30" class="edge">
<title>26&#45;&gt;25</title>
<path fill="none" stroke="grey" stroke-width="2" d="M164.24,-1151.7C164.79,-1143.98 165.45,-1134.71 166.06,-1126.11"/>
<polygon fill="grey" stroke="grey" stroke-width="2" points="169.56,-1126.33 166.78,-1116.1 162.57,-1125.83 169.56,-1126.33"/>
</g>
</g>
</svg>
