<?xml version="1.0" encoding="UTF-8" standalone="no"?>
<!DOCTYPE svg PUBLIC "-//W3C//DTD SVG 1.1//EN"
 "http://www.w3.org/Graphics/SVG/1.1/DTD/svg11.dtd">
<!-- Generated by graphviz version 2.42.3 (20191010.1750)
 -->
<!-- Title: snakemake_dag Pages: 1 -->
<svg width="324pt" height="1268pt"
 viewBox="0.00 0.00 324.00 1268.00" xmlns="http://www.w3.org/2000/svg" xmlns:xlink="http://www.w3.org/1999/xlink">
<g id="graph0" class="graph" transform="scale(1 1) rotate(0) translate(4 1264)">
<title>snakemake_dag</title>
<polygon fill="white" stroke="transparent" points="-4,4 -4,-1264 320,-1264 320,4 -4,4"/>
<!-- 0 -->
<g id="node1" class="node">
<title>0</title>
<path fill="none" stroke="#568ad8" stroke-width="2" d="M188,-36C188,-36 158,-36 158,-36 152,-36 146,-30 146,-24 146,-24 146,-12 146,-12 146,-6 152,0 158,0 158,0 188,0 188,0 194,0 200,-6 200,-12 200,-12 200,-24 200,-24 200,-30 194,-36 188,-36"/>
<text text-anchor="middle" x="173" y="-15.5" font-family="sans" font-size="10.00">all</text>
</g>
<!-- 1 -->
<g id="node2" class="node">
<title>1</title>
<path fill="none" stroke="#567bd8" stroke-width="2" stroke-dasharray="5,2" d="M160,-108C160,-108 98,-108 98,-108 92,-108 86,-102 86,-96 86,-96 86,-84 86,-84 86,-78 92,-72 98,-72 98,-72 160,-72 160,-72 166,-72 172,-78 172,-84 172,-84 172,-96 172,-96 172,-102 166,-108 160,-108"/>
<text text-anchor="middle" x="129" y="-87.5" font-family="sans" font-size="10.00">memmer_plot</text>
</g>
<!-- 1&#45;&gt;0 -->
<g id="edge1" class="edge">
<title>1&#45;&gt;0</title>
<path fill="none" stroke="grey" stroke-width="2" d="M139.88,-71.7C144.99,-63.56 151.2,-53.69 156.84,-44.7"/>
<polygon fill="grey" stroke="grey" stroke-width="2" points="159.89,-46.43 162.25,-36.1 153.96,-42.71 159.89,-46.43"/>
</g>
<!-- 2 -->
<g id="node3" class="node">
<title>2</title>
<path fill="none" stroke="#68d856" stroke-width="2" stroke-dasharray="5,2" d="M76.5,-612C76.5,-612 39.5,-612 39.5,-612 33.5,-612 27.5,-606 27.5,-600 27.5,-600 27.5,-588 27.5,-588 27.5,-582 33.5,-576 39.5,-576 39.5,-576 76.5,-576 76.5,-576 82.5,-576 88.5,-582 88.5,-588 88.5,-588 88.5,-600 88.5,-600 88.5,-606 82.5,-612 76.5,-612"/>
<text text-anchor="middle" x="58" y="-591.5" font-family="sans" font-size="10.00">vcf_stats</text>
</g>
<!-- 2&#45;&gt;0 -->
<g id="edge2" class="edge">
<title>2&#45;&gt;0</title>
<path fill="none" stroke="grey" stroke-width="2" d="M58,-575.95C58,-549.29 58,-496.11 58,-451 58,-451 58,-451 58,-161 58,-120.55 52.9,-104.48 77,-72 91.59,-52.33 115.76,-39.05 136.19,-30.7"/>
<polygon fill="grey" stroke="grey" stroke-width="2" points="137.49,-33.95 145.57,-27.1 134.98,-27.42 137.49,-33.95"/>
</g>
<!-- 3 -->
<g id="node4" class="node">
<title>3</title>
<path fill="none" stroke="#56c9d8" stroke-width="2" d="M232,-108C232,-108 202,-108 202,-108 196,-108 190,-102 190,-96 190,-96 190,-84 190,-84 190,-78 196,-72 202,-72 202,-72 232,-72 232,-72 238,-72 244,-78 244,-84 244,-84 244,-96 244,-96 244,-102 238,-108 232,-108"/>
<text text-anchor="middle" x="217" y="-87.5" font-family="sans" font-size="10.00">QC_SR</text>
</g>
<!-- 3&#45;&gt;0 -->
<g id="edge3" class="edge">
<title>3&#45;&gt;0</title>
<path fill="none" stroke="grey" stroke-width="2" d="M206.12,-71.7C201.01,-63.56 194.8,-53.69 189.16,-44.7"/>
<polygon fill="grey" stroke="grey" stroke-width="2" points="192.04,-42.71 183.75,-36.1 186.11,-46.43 192.04,-42.71"/>
</g>
<!-- 4 -->
<g id="node5" class="node">
<title>4</title>
<path fill="none" stroke="#d8c356" stroke-width="2" d="M304,-108C304,-108 274,-108 274,-108 268,-108 262,-102 262,-96 262,-96 262,-84 262,-84 262,-78 268,-72 274,-72 274,-72 304,-72 304,-72 310,-72 316,-78 316,-84 316,-84 316,-96 316,-96 316,-102 310,-108 304,-108"/>
<text text-anchor="middle" x="289" y="-87.5" font-family="sans" font-size="10.00">QC_LR</text>
</g>
<!-- 4&#45;&gt;0 -->
<g id="edge4" class="edge">
<title>4&#45;&gt;0</title>
<path fill="none" stroke="grey" stroke-width="2" d="M261.8,-72.59C245.95,-63.02 225.77,-50.85 208.66,-40.52"/>
<polygon fill="grey" stroke="grey" stroke-width="2" points="210.4,-37.48 200.03,-35.31 206.78,-43.47 210.4,-37.48"/>
</g>
<!-- 5 -->
<g id="node6" class="node">
<title>5</title>
<path fill="none" stroke="#78d856" stroke-width="2" stroke-dasharray="5,2" d="M151.5,-180C151.5,-180 106.5,-180 106.5,-180 100.5,-180 94.5,-174 94.5,-168 94.5,-168 94.5,-156 94.5,-156 94.5,-150 100.5,-144 106.5,-144 106.5,-144 151.5,-144 151.5,-144 157.5,-144 163.5,-150 163.5,-156 163.5,-156 163.5,-168 163.5,-168 163.5,-174 157.5,-180 151.5,-180"/>
<text text-anchor="middle" x="129" y="-159.5" font-family="sans" font-size="10.00">delta_filter</text>
</g>
<!-- 5&#45;&gt;1 -->
<g id="edge5" class="edge">
<title>5&#45;&gt;1</title>
<path fill="none" stroke="grey" stroke-width="2" d="M129,-143.7C129,-135.98 129,-126.71 129,-118.11"/>
<polygon fill="grey" stroke="grey" stroke-width="2" points="132.5,-118.1 129,-108.1 125.5,-118.1 132.5,-118.1"/>
</g>
<!-- 6 -->
<g id="node7" class="node">
<title>6</title>
<path fill="none" stroke="#8fd856" stroke-width="2" stroke-dasharray="5,2" d="M87.5,-756C87.5,-756 40.5,-756 40.5,-756 34.5,-756 28.5,-750 28.5,-744 28.5,-744 28.5,-732 28.5,-732 28.5,-726 34.5,-720 40.5,-720 40.5,-720 87.5,-720 87.5,-720 93.5,-720 99.5,-726 99.5,-732 99.5,-732 99.5,-744 99.5,-744 99.5,-750 93.5,-756 87.5,-756"/>
<text text-anchor="middle" x="64" y="-735.5" font-family="sans" font-size="10.00">gatk_haplo</text>
</g>
<!-- 6&#45;&gt;2 -->
<g id="edge6" class="edge">
<title>6&#45;&gt;2</title>
<path fill="none" stroke="grey" stroke-width="2" d="M63.28,-719.87C62.25,-695.67 60.38,-651.21 59.16,-622.39"/>
<polygon fill="grey" stroke="grey" stroke-width="2" points="62.65,-622.03 58.73,-612.19 55.65,-622.33 62.65,-622.03"/>
</g>
<!-- 18 -->
<g id="node19" class="node">
<title>18</title>
<path fill="none" stroke="#56d8c9" stroke-width="2" stroke-dasharray="5,2" d="M156.5,-684C156.5,-684 105.5,-684 105.5,-684 99.5,-684 93.5,-678 93.5,-672 93.5,-672 93.5,-660 93.5,-660 93.5,-654 99.5,-648 105.5,-648 105.5,-648 156.5,-648 156.5,-648 162.5,-648 168.5,-654 168.5,-660 168.5,-660 168.5,-672 168.5,-672 168.5,-678 162.5,-684 156.5,-684"/>
<text text-anchor="middle" x="131" y="-663.5" font-family="sans" font-size="10.00">what_phase</text>
</g>
<!-- 6&#45;&gt;18 -->
<g id="edge21" class="edge">
<title>6&#45;&gt;18</title>
<path fill="none" stroke="grey" stroke-width="2" d="M80.56,-719.7C88.68,-711.22 98.59,-700.86 107.47,-691.58"/>
<polygon fill="grey" stroke="grey" stroke-width="2" points="110.24,-693.75 114.63,-684.1 105.19,-688.91 110.24,-693.75"/>
</g>
<!-- 7 -->
<g id="node8" class="node">
<title>7</title>
<path fill="none" stroke="#56d8d8" stroke-width="2" stroke-dasharray="5,2" d="M144,-252C144,-252 114,-252 114,-252 108,-252 102,-246 102,-240 102,-240 102,-228 102,-228 102,-222 108,-216 114,-216 114,-216 144,-216 144,-216 150,-216 156,-222 156,-228 156,-228 156,-240 156,-240 156,-246 150,-252 144,-252"/>
<text text-anchor="middle" x="129" y="-231.5" font-family="sans" font-size="10.00">nucmer</text>
</g>
<!-- 7&#45;&gt;5 -->
<g id="edge7" class="edge">
<title>7&#45;&gt;5</title>
<path fill="none" stroke="grey" stroke-width="2" d="M129,-215.7C129,-207.98 129,-198.71 129,-190.11"/>
<polygon fill="grey" stroke="grey" stroke-width="2" points="132.5,-190.1 129,-180.1 125.5,-190.1 132.5,-190.1"/>
</g>
<!-- 8 -->
<g id="node9" class="node">
<title>8</title>
<path fill="none" stroke="#56d88a" stroke-width="2" stroke-dasharray="5,2" d="M102,-828C102,-828 26,-828 26,-828 20,-828 14,-822 14,-816 14,-816 14,-804 14,-804 14,-798 20,-792 26,-792 26,-792 102,-792 102,-792 108,-792 114,-798 114,-804 114,-804 114,-816 114,-816 114,-822 108,-828 102,-828"/>
<text text-anchor="middle" x="64" y="-807.5" font-family="sans" font-size="10.00">picard_AddOrRep</text>
</g>
<!-- 8&#45;&gt;6 -->
<g id="edge8" class="edge">
<title>8&#45;&gt;6</title>
<path fill="none" stroke="grey" stroke-width="2" d="M64,-791.7C64,-783.98 64,-774.71 64,-766.11"/>
<polygon fill="grey" stroke="grey" stroke-width="2" points="67.5,-766.1 64,-756.1 60.5,-766.1 67.5,-766.1"/>
</g>
<!-- 9 -->
<g id="node10" class="node">
<title>9</title>
<path fill="none" stroke="#56b1d8" stroke-width="2" stroke-dasharray="5,2" d="M151,-324C151,-324 107,-324 107,-324 101,-324 95,-318 95,-312 95,-312 95,-300 95,-300 95,-294 101,-288 107,-288 107,-288 151,-288 151,-288 157,-288 163,-294 163,-300 163,-300 163,-312 163,-312 163,-318 157,-324 151,-324"/>
<text text-anchor="middle" x="129" y="-303.5" font-family="sans" font-size="10.00">sort_haplo</text>
</g>
<!-- 9&#45;&gt;7 -->
<g id="edge9" class="edge">
<title>9&#45;&gt;7</title>
<path fill="none" stroke="grey" stroke-width="2" d="M129,-287.7C129,-279.98 129,-270.71 129,-262.11"/>
<polygon fill="grey" stroke="grey" stroke-width="2" points="132.5,-262.1 129,-252.1 125.5,-262.1 132.5,-262.1"/>
</g>
<!-- 10 -->
<g id="node11" class="node">
<title>10</title>
<path fill="none" stroke="#d86656" stroke-width="2" stroke-dasharray="5,2" d="M116,-900C116,-900 12,-900 12,-900 6,-900 0,-894 0,-888 0,-888 0,-876 0,-876 0,-870 6,-864 12,-864 12,-864 116,-864 116,-864 122,-864 128,-870 128,-876 128,-876 128,-888 128,-888 128,-894 122,-900 116,-900"/>
<text text-anchor="middle" x="64" y="-879.5" font-family="sans" font-size="10.00">picard_markduplicates</text>
</g>
<!-- 10&#45;&gt;8 -->
<g id="edge10" class="edge">
<title>10&#45;&gt;8</title>
<path fill="none" stroke="grey" stroke-width="2" d="M64,-863.7C64,-855.98 64,-846.71 64,-838.11"/>
<polygon fill="grey" stroke="grey" stroke-width="2" points="67.5,-838.1 64,-828.1 60.5,-838.1 67.5,-838.1"/>
</g>
<!-- 11 -->
<g id="node12" class="node">
<title>11</title>
<path fill="none" stroke="#b6d856" stroke-width="2" stroke-dasharray="5,2" d="M157,-396C157,-396 101,-396 101,-396 95,-396 89,-390 89,-384 89,-384 89,-372 89,-372 89,-366 95,-360 101,-360 101,-360 157,-360 157,-360 163,-360 169,-366 169,-372 169,-372 169,-384 169,-384 169,-390 163,-396 157,-396"/>
<text text-anchor="middle" x="129" y="-375.5" font-family="sans" font-size="10.00">merge_haplo</text>
</g>
<!-- 11&#45;&gt;9 -->
<g id="edge11" class="edge">
<title>11&#45;&gt;9</title>
<path fill="none" stroke="grey" stroke-width="2" d="M129,-359.7C129,-351.98 129,-342.71 129,-334.11"/>
<polygon fill="grey" stroke="grey" stroke-width="2" points="132.5,-334.1 129,-324.1 125.5,-334.1 132.5,-334.1"/>
</g>
<!-- 12 -->
<g id="node13" class="node">
<title>12</title>
<path fill="none" stroke="#56d86b" stroke-width="2" stroke-dasharray="5,2" d="M93.5,-972C93.5,-972 34.5,-972 34.5,-972 28.5,-972 22.5,-966 22.5,-960 22.5,-960 22.5,-948 22.5,-948 22.5,-942 28.5,-936 34.5,-936 34.5,-936 93.5,-936 93.5,-936 99.5,-936 105.5,-942 105.5,-948 105.5,-948 105.5,-960 105.5,-960 105.5,-966 99.5,-972 93.5,-972"/>
<text text-anchor="middle" x="64" y="-951.5" font-family="sans" font-size="10.00">mapped_bam</text>
</g>
<!-- 12&#45;&gt;10 -->
<g id="edge12" class="edge">
<title>12&#45;&gt;10</title>
<path fill="none" stroke="grey" stroke-width="2" d="M64,-935.7C64,-927.98 64,-918.71 64,-910.11"/>
<polygon fill="grey" stroke="grey" stroke-width="2" points="67.5,-910.1 64,-900.1 60.5,-910.1 67.5,-910.1"/>
</g>
<!-- 13 -->
<g id="node14" class="node">
<title>13</title>
<path fill="none" stroke="#d6d856" stroke-width="2" stroke-dasharray="5,2" d="M154,-468C154,-468 104,-468 104,-468 98,-468 92,-462 92,-456 92,-456 92,-444 92,-444 92,-438 98,-432 104,-432 104,-432 154,-432 154,-432 160,-432 166,-438 166,-444 166,-444 166,-456 166,-456 166,-462 160,-468 154,-468"/>
<text text-anchor="middle" x="129" y="-447.5" font-family="sans" font-size="10.00">haplo_fasta</text>
</g>
<!-- 13&#45;&gt;11 -->
<g id="edge13" class="edge">
<title>13&#45;&gt;11</title>
<path fill="none" stroke="grey" stroke-width="2" d="M129,-431.7C129,-423.98 129,-414.71 129,-406.11"/>
<polygon fill="grey" stroke="grey" stroke-width="2" points="132.5,-406.1 129,-396.1 125.5,-406.1 132.5,-406.1"/>
</g>
<!-- 14 -->
<g id="node15" class="node">
<title>14</title>
<path fill="none" stroke="#566bd8" stroke-width="2" stroke-dasharray="5,2" d="M89.5,-1044C89.5,-1044 38.5,-1044 38.5,-1044 32.5,-1044 26.5,-1038 26.5,-1032 26.5,-1032 26.5,-1020 26.5,-1020 26.5,-1014 32.5,-1008 38.5,-1008 38.5,-1008 89.5,-1008 89.5,-1008 95.5,-1008 101.5,-1014 101.5,-1020 101.5,-1020 101.5,-1032 101.5,-1032 101.5,-1038 95.5,-1044 89.5,-1044"/>
<text text-anchor="middle" x="64" y="-1023.5" font-family="sans" font-size="10.00">sort_bamSR</text>
</g>
<!-- 14&#45;&gt;12 -->
<g id="edge14" class="edge">
<title>14&#45;&gt;12</title>
<path fill="none" stroke="grey" stroke-width="2" d="M64,-1007.7C64,-999.98 64,-990.71 64,-982.11"/>
<polygon fill="grey" stroke="grey" stroke-width="2" points="67.5,-982.1 64,-972.1 60.5,-982.1 67.5,-982.1"/>
</g>
<!-- 15 -->
<g id="node16" class="node">
<title>15</title>
<path fill="none" stroke="#9fd856" stroke-width="2" stroke-dasharray="5,2" d="M149,-612C149,-612 119,-612 119,-612 113,-612 107,-606 107,-600 107,-600 107,-588 107,-588 107,-582 113,-576 119,-576 119,-576 149,-576 149,-576 155,-576 161,-582 161,-588 161,-588 161,-600 161,-600 161,-606 155,-612 149,-612"/>
<text text-anchor="middle" x="134" y="-591.5" font-family="sans" font-size="10.00">bgzip</text>
</g>
<!-- 15&#45;&gt;13 -->
<g id="edge15" class="edge">
<title>15&#45;&gt;13</title>
<path fill="none" stroke="grey" stroke-width="2" d="M132.88,-575.82C132.24,-565.45 131.47,-551.97 131,-540 130.18,-519.28 129.67,-495.84 129.37,-478.21"/>
<polygon fill="grey" stroke="grey" stroke-width="2" points="132.87,-478.01 129.21,-468.07 125.87,-478.12 132.87,-478.01"/>
</g>
<!-- 16 -->
<g id="node17" class="node">
<title>16</title>
<path fill="none" stroke="#d8b456" stroke-width="2" stroke-dasharray="5,2" d="M182,-540C182,-540 152,-540 152,-540 146,-540 140,-534 140,-528 140,-528 140,-516 140,-516 140,-510 146,-504 152,-504 152,-504 182,-504 182,-504 188,-504 194,-510 194,-516 194,-516 194,-528 194,-528 194,-534 188,-540 182,-540"/>
<text text-anchor="middle" x="167" y="-519.5" font-family="sans" font-size="10.00">tabix</text>
</g>
<!-- 15&#45;&gt;16 -->
<g id="edge19" class="edge">
<title>15&#45;&gt;16</title>
<path fill="none" stroke="grey" stroke-width="2" d="M142.16,-575.7C145.91,-567.73 150.45,-558.1 154.62,-549.26"/>
<polygon fill="grey" stroke="grey" stroke-width="2" points="157.84,-550.64 158.94,-540.1 151.51,-547.66 157.84,-550.64"/>
</g>
<!-- 16&#45;&gt;13 -->
<g id="edge16" class="edge">
<title>16&#45;&gt;13</title>
<path fill="none" stroke="grey" stroke-width="2" d="M157.61,-503.7C153.24,-495.64 147.94,-485.89 143.1,-476.98"/>
<polygon fill="grey" stroke="grey" stroke-width="2" points="146.13,-475.22 138.29,-468.1 139.98,-478.56 146.13,-475.22"/>
</g>
<!-- 17 -->
<g id="node18" class="node">
<title>17</title>
<path fill="none" stroke="#d88d56" stroke-width="2" stroke-dasharray="5,2" d="M98,-1116C98,-1116 30,-1116 30,-1116 24,-1116 18,-1110 18,-1104 18,-1104 18,-1092 18,-1092 18,-1086 24,-1080 30,-1080 30,-1080 98,-1080 98,-1080 104,-1080 110,-1086 110,-1092 110,-1092 110,-1104 110,-1104 110,-1110 104,-1116 98,-1116"/>
<text text-anchor="middle" x="64" y="-1095.5" font-family="sans" font-size="10.00">sam_to_bamSR</text>
</g>
<!-- 17&#45;&gt;14 -->
<g id="edge17" class="edge">
<title>17&#45;&gt;14</title>
<path fill="none" stroke="grey" stroke-width="2" d="M64,-1079.7C64,-1071.98 64,-1062.71 64,-1054.11"/>
<polygon fill="grey" stroke="grey" stroke-width="2" points="67.5,-1054.1 64,-1044.1 60.5,-1054.1 67.5,-1054.1"/>
</g>
<!-- 18&#45;&gt;15 -->
<g id="edge18" class="edge">
<title>18&#45;&gt;15</title>
<path fill="none" stroke="grey" stroke-width="2" d="M131.74,-647.7C132.07,-639.98 132.47,-630.71 132.84,-622.11"/>
<polygon fill="grey" stroke="grey" stroke-width="2" points="136.34,-622.25 133.27,-612.1 129.34,-621.95 136.34,-622.25"/>
</g>
<!-- 19 -->
<g id="node20" class="node">
<title>19</title>
<path fill="none" stroke="#56d8b1" stroke-width="2" stroke-dasharray="5,2" d="M80.5,-1188C80.5,-1188 47.5,-1188 47.5,-1188 41.5,-1188 35.5,-1182 35.5,-1176 35.5,-1176 35.5,-1164 35.5,-1164 35.5,-1158 41.5,-1152 47.5,-1152 47.5,-1152 80.5,-1152 80.5,-1152 86.5,-1152 92.5,-1158 92.5,-1164 92.5,-1164 92.5,-1176 92.5,-1176 92.5,-1182 86.5,-1188 80.5,-1188"/>
<text text-anchor="middle" x="64" y="-1167.5" font-family="sans" font-size="10.00">bwa_aln</text>
</g>
<!-- 19&#45;&gt;17 -->
<g id="edge20" class="edge">
<title>19&#45;&gt;17</title>
<path fill="none" stroke="grey" stroke-width="2" d="M64,-1151.7C64,-1143.98 64,-1134.71 64,-1126.11"/>
<polygon fill="grey" stroke="grey" stroke-width="2" points="67.5,-1126.1 64,-1116.1 60.5,-1126.1 67.5,-1126.1"/>
</g>
<!-- 20 -->
<g id="node21" class="node">
<title>20</title>
<path fill="none" stroke="#56d8a2" stroke-width="2" stroke-dasharray="5,2" d="M217,-828C217,-828 167,-828 167,-828 161,-828 155,-822 155,-816 155,-816 155,-804 155,-804 155,-798 161,-792 167,-792 167,-792 217,-792 217,-792 223,-792 229,-798 229,-804 229,-804 229,-816 229,-816 229,-822 223,-828 217,-828"/>
<text text-anchor="middle" x="192" y="-807.5" font-family="sans" font-size="10.00">sort_bamLR</text>
</g>
<!-- 20&#45;&gt;18 -->
<g id="edge22" class="edge">
<title>20&#45;&gt;18</title>
<path fill="none" stroke="grey" stroke-width="2" d="M173.08,-791.58C163.8,-781.98 153.28,-769.32 147,-756 137.86,-736.63 133.92,-712.62 132.23,-694.42"/>
<polygon fill="grey" stroke="grey" stroke-width="2" points="135.7,-693.91 131.46,-684.2 128.72,-694.43 135.7,-693.91"/>
</g>
<!-- 21 -->
<g id="node22" class="node">
<title>21</title>
<path fill="none" stroke="#59d856" stroke-width="2" stroke-dasharray="5,2" d="M215.5,-756C215.5,-756 168.5,-756 168.5,-756 162.5,-756 156.5,-750 156.5,-744 156.5,-744 156.5,-732 156.5,-732 156.5,-726 162.5,-720 168.5,-720 168.5,-720 215.5,-720 215.5,-720 221.5,-720 227.5,-726 227.5,-732 227.5,-732 227.5,-744 227.5,-744 227.5,-750 221.5,-756 215.5,-756"/>
<text text-anchor="middle" x="192" y="-735.5" font-family="sans" font-size="10.00">index_bam</text>
</g>
<!-- 20&#45;&gt;21 -->
<g id="edge26" class="edge">
<title>20&#45;&gt;21</title>
<path fill="none" stroke="grey" stroke-width="2" d="M192,-791.7C192,-783.98 192,-774.71 192,-766.11"/>
<polygon fill="grey" stroke="grey" stroke-width="2" points="195.5,-766.1 192,-756.1 188.5,-766.1 195.5,-766.1"/>
</g>
<!-- 21&#45;&gt;18 -->
<g id="edge23" class="edge">
<title>21&#45;&gt;18</title>
<path fill="none" stroke="grey" stroke-width="2" d="M176.92,-719.7C169.61,-711.3 160.69,-701.07 152.66,-691.86"/>
<polygon fill="grey" stroke="grey" stroke-width="2" points="155.11,-689.34 145.91,-684.1 149.84,-693.94 155.11,-689.34"/>
</g>
<!-- 22 -->
<g id="node23" class="node">
<title>22</title>
<path fill="none" stroke="#56d87b" stroke-width="2" stroke-dasharray="5,2" d="M89,-1260C89,-1260 39,-1260 39,-1260 33,-1260 27,-1254 27,-1248 27,-1248 27,-1236 27,-1236 27,-1230 33,-1224 39,-1224 39,-1224 89,-1224 89,-1224 95,-1224 101,-1230 101,-1236 101,-1236 101,-1248 101,-1248 101,-1254 95,-1260 89,-1260"/>
<text text-anchor="middle" x="64" y="-1239.5" font-family="sans" font-size="10.00">index_fasta</text>
</g>
<!-- 22&#45;&gt;19 -->
<g id="edge24" class="edge">
<title>22&#45;&gt;19</title>
<path fill="none" stroke="grey" stroke-width="2" d="M64,-1223.7C64,-1215.98 64,-1206.71 64,-1198.11"/>
<polygon fill="grey" stroke="grey" stroke-width="2" points="67.5,-1198.1 64,-1188.1 60.5,-1198.1 67.5,-1198.1"/>
</g>
<!-- 23 -->
<g id="node24" class="node">
<title>23</title>
<path fill="none" stroke="#d87d56" stroke-width="2" stroke-dasharray="5,2" d="M226,-900C226,-900 158,-900 158,-900 152,-900 146,-894 146,-888 146,-888 146,-876 146,-876 146,-870 152,-864 158,-864 158,-864 226,-864 226,-864 232,-864 238,-870 238,-876 238,-876 238,-888 238,-888 238,-894 232,-900 226,-900"/>
<text text-anchor="middle" x="192" y="-879.5" font-family="sans" font-size="10.00">sam_to_bamLR</text>
</g>
<!-- 23&#45;&gt;20 -->
<g id="edge25" class="edge">
<title>23&#45;&gt;20</title>
<path fill="none" stroke="grey" stroke-width="2" d="M192,-863.7C192,-855.98 192,-846.71 192,-838.11"/>
<polygon fill="grey" stroke="grey" stroke-width="2" points="195.5,-838.1 192,-828.1 188.5,-838.1 195.5,-838.1"/>
</g>
<!-- 24 -->
<g id="node25" class="node">
<title>24</title>
<path fill="none" stroke="#d8a456" stroke-width="2" stroke-dasharray="5,2" d="M208,-972C208,-972 176,-972 176,-972 170,-972 164,-966 164,-960 164,-960 164,-948 164,-948 164,-942 170,-936 176,-936 176,-936 208,-936 208,-936 214,-936 220,-942 220,-948 220,-948 220,-960 220,-960 220,-966 214,-972 208,-972"/>
<text text-anchor="middle" x="192" y="-951.5" font-family="sans" font-size="10.00">map_LR</text>
</g>
<!-- 24&#45;&gt;23 -->
<g id="edge27" class="edge">
<title>24&#45;&gt;23</title>
<path fill="none" stroke="grey" stroke-width="2" d="M192,-935.7C192,-927.98 192,-918.71 192,-910.11"/>
<polygon fill="grey" stroke="grey" stroke-width="2" points="195.5,-910.1 192,-900.1 188.5,-910.1 195.5,-910.1"/>
</g>
<!-- 25 -->
<g id="node26" class="node">
<title>25</title>
<path fill="none" stroke="#56a2d8" stroke-width="2" stroke-dasharray="5,2" d="M212,-1044C212,-1044 172,-1044 172,-1044 166,-1044 160,-1038 160,-1032 160,-1032 160,-1020 160,-1020 160,-1014 166,-1008 172,-1008 172,-1008 212,-1008 212,-1008 218,-1008 224,-1014 224,-1020 224,-1020 224,-1032 224,-1032 224,-1038 218,-1044 212,-1044"/>
<text text-anchor="middle" x="192" y="-1023.5" font-family="sans" font-size="10.00">trim_pore</text>
</g>
<!-- 25&#45;&gt;24 -->
<g id="edge28" class="edge">
<title>25&#45;&gt;24</title>
<path fill="none" stroke="grey" stroke-width="2" d="M192,-1007.7C192,-999.98 192,-990.71 192,-982.11"/>
<polygon fill="grey" stroke="grey" stroke-width="2" points="195.5,-982.1 192,-972.1 188.5,-982.1 195.5,-982.1"/>
</g>
<!-- 26 -->
<g id="node27" class="node">
<title>26</title>
<path fill="none" stroke="#d85656" stroke-width="2" stroke-dasharray="5,2" d="M212.5,-1116C212.5,-1116 171.5,-1116 171.5,-1116 165.5,-1116 159.5,-1110 159.5,-1104 159.5,-1104 159.5,-1092 159.5,-1092 159.5,-1086 165.5,-1080 171.5,-1080 171.5,-1080 212.5,-1080 212.5,-1080 218.5,-1080 224.5,-1086 224.5,-1092 224.5,-1092 224.5,-1104 224.5,-1104 224.5,-1110 218.5,-1116 212.5,-1116"/>
<text text-anchor="middle" x="192" y="-1095.5" font-family="sans" font-size="10.00">merge_LR</text>
</g>
<!-- 26&#45;&gt;25 -->
<g id="edge29" class="edge">
<title>26&#45;&gt;25</title>
<path fill="none" stroke="grey" stroke-width="2" d="M192,-1079.7C192,-1071.98 192,-1062.71 192,-1054.11"/>
<polygon fill="grey" stroke="grey" stroke-width="2" points="195.5,-1054.1 192,-1044.1 188.5,-1054.1 195.5,-1054.1"/>
</g>
</g>
</svg>
